<svg width="553" height="555" viewBox="0 0 553 555" fill="none" xmlns="http://www.w3.org/2000/svg">
<g filter="url(#filter0_di)">
<path d="M22 59C22 38.5655 38.5655 22 59 22H485C505.435 22 522 38.5655 522 59V485C522 505.435 505.435 522 485 522H59C38.5655 522 22 505.435 22 485V59Z" fill="#EEEEEE"/>
<path d="M485 11H59C32.4903 11 11 32.4903 11 59V485C11 511.51 32.4903 533 59 533H485C511.51 533 533 511.51 533 485V59C533 32.4903 511.51 11 485 11Z" stroke="url(#paint0_linear)" stroke-width="22"/>
</g>
<defs>
<filter id="filter0_di" x="0" y="0" width="553" height="555" filterUnits="userSpaceOnUse" color-interpolation-filters="sRGB">
<feFlood flood-opacity="0" result="BackgroundImageFix"/>
<feColorMatrix in="SourceAlpha" type="matrix" values="0 0 0 0 0 0 0 0 0 0 0 0 0 0 0 0 0 0 127 0"/>
<feOffset dx="5" dy="7"/>
<feGaussianBlur stdDeviation="2"/>
<feColorMatrix type="matrix" values="0 0 0 0 0 0 0 0 0 0 0 0 0 0 0 0 0 0 0.25 0"/>
<feBlend mode="normal" in2="BackgroundImageFix" result="effect1_dropShadow"/>
<feBlend mode="normal" in="SourceGraphic" in2="effect1_dropShadow" result="shape"/>
<feColorMatrix in="SourceAlpha" type="matrix" values="0 0 0 0 0 0 0 0 0 0 0 0 0 0 0 0 0 0 127 0" result="hardAlpha"/>
<feOffset dx="28" dy="30"/>
<feGaussianBlur stdDeviation="2"/>
<feComposite in2="hardAlpha" operator="arithmetic" k2="-1" k3="1"/>
<feColorMatrix type="matrix" values="0 0 0 0 0 0 0 0 0 0 0 0 0 0 0 0 0 0 0.25 0"/>
<feBlend mode="normal" in2="shape" result="effect2_innerShadow"/>
</filter>
<linearGradient id="paint0_linear" x1="584.5" y1="566" x2="-11.5" y2="-77.5" gradientUnits="userSpaceOnUse">
<stop stop-color="#0066FF"/>
<stop offset="1" stop-color="#ACCDFF"/>
</linearGradient>
</defs>
</svg>
