<svg width="114" height="114" viewBox="0 0 114 114" fill="none" xmlns="http://www.w3.org/2000/svg">
<g filter="url(#filter0_d)">
<rect x="3.99997" y="1.00002" width="100" height="100" rx="20" fill="white"/>
<rect x="11" y="8.00002" width="86" height="86" rx="13" stroke="url(#paint0_diamond)" stroke-width="14" stroke-linejoin="round"/>
</g>
<path d="M6.95581 48.5C6.95581 48.5 21.163 61.0009 28.5 66.5C40.8148 75.73 49.8141 90 49.8141 90C51.5 92 50.6417 92.5 51.9558 90C51.9558 90 55.4138 79.8922 65.5 65C77.4793 47.3126 105.5 13 105.5 13C105.5 13 108.5 9 81.5 35.5C72.6293 44.2064 63.4332 54.2292 51.9558 59C35.2924 65.9264 6.95581 48.5 6.95581 48.5Z" fill="#077A12"/>
<defs>
<filter id="filter0_d" x="-3.05176e-05" y="1.52588e-05" width="114" height="114" filterUnits="userSpaceOnUse" color-interpolation-filters="sRGB">
<feFlood flood-opacity="0" result="BackgroundImageFix"/>
<feColorMatrix in="SourceAlpha" type="matrix" values="0 0 0 0 0 0 0 0 0 0 0 0 0 0 0 0 0 0 127 0"/>
<feOffset dx="3" dy="6"/>
<feGaussianBlur stdDeviation="3.5"/>
<feColorMatrix type="matrix" values="0 0 0 0 0 0 0 0 0 0 0 0 0 0 0 0 0 0 0.25 0"/>
<feBlend mode="normal" in2="BackgroundImageFix" result="effect1_dropShadow"/>
<feBlend mode="normal" in="SourceGraphic" in2="effect1_dropShadow" result="shape"/>
</filter>
<radialGradient id="paint0_diamond" cx="0" cy="0" r="1" gradientUnits="userSpaceOnUse" gradientTransform="translate(40 -9.49998) rotate(66.3577) scale(127.174)">
<stop offset="0.0364583" stop-color="#2C8D2A"/>
<stop offset="0.665126" stop-color="#53C840" stop-opacity="0.747541"/>
<stop offset="0.989583" stop-color="#1C880B" stop-opacity="0.86"/>
</radialGradient>
</defs>
</svg>
