<svg width="180" height="74" viewBox="0 0 180 74" fill="none" xmlns="http://www.w3.org/2000/svg">
<g filter="url(#filter0_d)">
<path d="M26.7266 12.7266V26.1797H33.4531C34.375 26.1797 35.2422 26.0078 36.0547 25.6641C36.8672 25.3047 37.5781 24.8203 38.1875 24.211C38.7969 23.6016 39.2734 22.8906 39.6172 22.0782C39.9766 21.25 40.1562 20.375 40.1562 19.4532C40.1562 18.5313 39.9766 17.6641 39.6172 16.8516C39.2734 16.0235 38.7969 15.3047 38.1875 14.6953C37.5781 14.086 36.8672 13.6094 36.0547 13.2656C35.2422 12.9063 34.375 12.7266 33.4531 12.7266H26.7266ZM26.7266 39.6094H20V6H33.4531C34.6875 6 35.875 6.1641 37.0156 6.4922C38.1562 6.8047 39.2187 7.2578 40.2031 7.8516C41.2031 8.4297 42.1094 9.1328 42.9219 9.961C43.75 10.7735 44.4528 11.6797 45.0308 12.6797C45.6248 13.6797 46.0778 14.75 46.3908 15.8906C46.7188 17.0313 46.8828 18.2188 46.8828 19.4532C46.8828 20.6094 46.7348 21.7344 46.4378 22.8282C46.1558 23.9219 45.7418 24.961 45.1948 25.9453C44.6638 26.9297 44.0078 27.836 43.2266 28.6641C42.4453 29.4922 41.5703 30.211 40.6016 30.8203L44.3278 39.6094H37.1797L34.25 32.836L26.7266 32.8828V39.6094ZM74.3518 39.6094H51.3128V6H74.3518V12.7266H58.0388V19.4532H69.0778V26.1797H58.0388V32.8828H74.3518V39.6094ZM76.7188 16.0782C76.7188 14.6875 76.9848 13.3828 77.5158 12.1641C78.0468 10.9453 78.7658 9.8828 79.6718 8.9766C80.5938 8.0547 81.6638 7.3282 82.8828 6.7969C84.1018 6.2656 85.4058 6 86.7968 6H102.219V12.7266H86.7968C86.3278 12.7266 85.8908 12.8125 85.4848 12.9844C85.0778 13.1563 84.7188 13.3985 84.4058 13.711C84.1098 14.0078 83.8748 14.3594 83.7028 14.7656C83.5308 15.1719 83.4448 15.6094 83.4448 16.0782C83.4448 16.5469 83.5308 16.9922 83.7028 17.4141C83.8748 17.8203 84.1098 18.1797 84.4058 18.4922C84.7188 18.7891 85.0778 19.0235 85.4848 19.1953C85.8908 19.3672 86.3278 19.4532 86.7968 19.4532H93.5238C94.9138 19.4532 96.2188 19.7188 97.4378 20.25C98.6718 20.7656 99.7418 21.4844 100.649 22.4063C101.571 23.3125 102.289 24.3828 102.805 25.6172C103.336 26.836 103.602 28.1406 103.602 29.5313C103.602 30.9219 103.336 32.2266 102.805 33.4453C102.289 34.6641 101.571 35.7344 100.649 36.6563C99.7418 37.5625 98.6718 38.2813 97.4378 38.8125C96.2188 39.3438 94.9138 39.6094 93.5238 39.6094H78.5938V32.8828H93.5238C93.9918 32.8828 94.4298 32.7969 94.8358 32.625C95.2418 32.4532 95.5938 32.2188 95.8908 31.9219C96.2028 31.6094 96.4448 31.25 96.6168 30.8438C96.7888 30.4375 96.8748 30 96.8748 29.5313C96.8748 29.0625 96.7888 28.625 96.6168 28.2188C96.4448 27.8125 96.2028 27.461 95.8908 27.1641C95.5938 26.8516 95.2418 26.6094 94.8358 26.4375C94.4298 26.2656 93.9918 26.1797 93.5238 26.1797H86.7968C85.4058 26.1797 84.1018 25.9141 82.8828 25.3828C81.6638 24.8516 80.5938 24.1328 79.6718 23.2266C78.7658 22.3047 78.0468 21.2344 77.5158 20.0156C76.9848 18.7813 76.7188 17.4688 76.7188 16.0782ZM131.071 39.6094H108.031V6H131.071V12.7266H114.758V19.4532H125.797V26.1797H114.758V32.8828H131.071V39.6094ZM149.891 39.6094H143.188V12.7266H133.086V6H159.969V12.7266H149.891V39.6094Z" fill="url(#paint0_linear)"/>
</g>
<defs>
<filter id="filter0_d" x="0" y="0" width="179.969" height="73.6094" filterUnits="userSpaceOnUse" color-interpolation-filters="sRGB">
<feFlood flood-opacity="0" result="BackgroundImageFix"/>
<feColorMatrix in="SourceAlpha" type="matrix" values="0 0 0 0 0 0 0 0 0 0 0 0 0 0 0 0 0 0 127 0"/>
<feOffset dy="14"/>
<feGaussianBlur stdDeviation="10"/>
<feColorMatrix type="matrix" values="0 0 0 0 0 0 0 0 0 0 0 0 0 0 0 0 0 0 0.6 0"/>
<feBlend mode="normal" in2="BackgroundImageFix" result="effect1_dropShadow"/>
<feBlend mode="normal" in="SourceGraphic" in2="effect1_dropShadow" result="shape"/>
</filter>
<linearGradient id="paint0_linear" x1="88.8828" y1="-7.3906" x2="89.8828" y2="54.1094" gradientUnits="userSpaceOnUse">
<stop stop-color="#FFDDDD"/>
<stop offset="0.777722" stop-color="#CF0202"/>
</linearGradient>
</defs>
</svg>
