<svg width="289" height="119" viewBox="0 0 289 119" fill="none" xmlns="http://www.w3.org/2000/svg">
<g filter="url(#filter0_d)">
<rect x="24" y="10" width="241" height="71" rx="16" fill="url(#paint0_linear)" stroke="url(#paint1_linear)" stroke-width="8"/>
<path d="M82.8438 37.1172V50.5703H89.5703C90.4922 50.5703 91.3594 50.3984 92.1719 50.0547C92.9844 49.6953 93.6953 49.2109 94.3047 48.6016C94.9141 47.9922 95.3906 47.2812 95.7344 46.4688C96.0938 45.6406 96.2734 44.7656 96.2734 43.8438C96.2734 42.9219 96.0938 42.0547 95.7344 41.2422C95.3906 40.4141 94.9141 39.6953 94.3047 39.0859C93.6953 38.4766 92.9844 38 92.1719 37.6562C91.3594 37.2969 90.4922 37.1172 89.5703 37.1172H82.8438ZM82.8438 64H76.1172V30.3906H89.5703C90.8047 30.3906 91.9922 30.5547 93.1328 30.8828C94.2734 31.1953 95.3359 31.6484 96.3203 32.2422C97.3203 32.8203 98.2266 33.5234 99.0391 34.3516C99.8672 35.1641 100.57 36.0703 101.148 37.0703C101.742 38.0703 102.195 39.1406 102.508 40.2812C102.836 41.4219 103 42.6094 103 43.8438C103 45 102.852 46.125 102.555 47.2188C102.273 48.3125 101.859 49.3516 101.312 50.3359C100.781 51.3203 100.125 52.2266 99.3438 53.0547C98.5625 53.8828 97.6875 54.6016 96.7188 55.2109L100.445 64H93.2969L90.3672 57.2266L82.8438 57.2734V64ZM130.469 64H107.43V30.3906H130.469V37.1172H114.156V43.8438H125.195V50.5703H114.156V57.2734H130.469V64ZM132.836 40.4688C132.836 39.0781 133.102 37.7734 133.633 36.5547C134.164 35.3359 134.883 34.2734 135.789 33.3672C136.711 32.4453 137.781 31.7188 139 31.1875C140.219 30.6562 141.523 30.3906 142.914 30.3906H158.336V37.1172H142.914C142.445 37.1172 142.008 37.2031 141.602 37.375C141.195 37.5469 140.836 37.7891 140.523 38.1016C140.227 38.3984 139.992 38.75 139.82 39.1562C139.648 39.5625 139.562 40 139.562 40.4688C139.562 40.9375 139.648 41.3828 139.82 41.8047C139.992 42.2109 140.227 42.5703 140.523 42.8828C140.836 43.1797 141.195 43.4141 141.602 43.5859C142.008 43.7578 142.445 43.8438 142.914 43.8438H149.641C151.031 43.8438 152.336 44.1094 153.555 44.6406C154.789 45.1562 155.859 45.875 156.766 46.7969C157.688 47.7031 158.406 48.7734 158.922 50.0078C159.453 51.2266 159.719 52.5312 159.719 53.9219C159.719 55.3125 159.453 56.6172 158.922 57.8359C158.406 59.0547 157.688 60.125 156.766 61.0469C155.859 61.9531 154.789 62.6719 153.555 63.2031C152.336 63.7344 151.031 64 149.641 64H134.711V57.2734H149.641C150.109 57.2734 150.547 57.1875 150.953 57.0156C151.359 56.8438 151.711 56.6094 152.008 56.3125C152.32 56 152.562 55.6406 152.734 55.2344C152.906 54.8281 152.992 54.3906 152.992 53.9219C152.992 53.4531 152.906 53.0156 152.734 52.6094C152.562 52.2031 152.32 51.8516 152.008 51.5547C151.711 51.2422 151.359 51 150.953 50.8281C150.547 50.6562 150.109 50.5703 149.641 50.5703H142.914C141.523 50.5703 140.219 50.3047 139 49.7734C137.781 49.2422 136.711 48.5234 135.789 47.6172C134.883 46.6953 134.164 45.625 133.633 44.4062C133.102 43.1719 132.836 41.8594 132.836 40.4688ZM187.188 64H164.148V30.3906H187.188V37.1172H170.875V43.8438H181.914V50.5703H170.875V57.2734H187.188V64ZM206.008 64H199.305V37.1172H189.203V30.3906H216.086V37.1172H206.008V64Z" fill="url(#paint2_linear)"/>
</g>
<defs>
<filter id="filter0_d" x="0" y="0" width="289" height="119" filterUnits="userSpaceOnUse" color-interpolation-filters="sRGB">
<feFlood flood-opacity="0" result="BackgroundImageFix"/>
<feColorMatrix in="SourceAlpha" type="matrix" values="0 0 0 0 0 0 0 0 0 0 0 0 0 0 0 0 0 0 127 0"/>
<feOffset dy="14"/>
<feGaussianBlur stdDeviation="10"/>
<feColorMatrix type="matrix" values="0 0 0 0 0 0 0 0 0 0 0 0 0 0 0 0 0 0 0.6 0"/>
<feBlend mode="normal" in2="BackgroundImageFix" result="effect1_dropShadow"/>
<feBlend mode="normal" in="SourceGraphic" in2="effect1_dropShadow" result="shape"/>
</filter>
<linearGradient id="paint0_linear" x1="144.5" y1="6" x2="144.5" y2="85" gradientUnits="userSpaceOnUse">
<stop offset="0.130208" stop-color="white"/>
<stop offset="1" stop-color="#FFC56D" stop-opacity="0.6"/>
</linearGradient>
<linearGradient id="paint1_linear" x1="144.5" y1="6" x2="144.5" y2="85" gradientUnits="userSpaceOnUse">
<stop stop-color="#FF8383"/>
<stop offset="1" stop-color="#7A0000"/>
</linearGradient>
<linearGradient id="paint2_linear" x1="145" y1="17" x2="145" y2="77" gradientUnits="userSpaceOnUse">
<stop stop-color="#FFB4B4"/>
<stop offset="1" stop-color="#6A0000"/>
</linearGradient>
</defs>
</svg>
