<svg width="289" height="119" viewBox="0 0 289 119" fill="none" xmlns="http://www.w3.org/2000/svg">
<g filter="url(#filter0_d)">
<path d="M249 10H40C31.1634 10 24 17.1634 24 26V65C24 73.8366 31.1634 81 40 81H249C257.837 81 265 73.8366 265 65V26C265 17.1634 257.837 10 249 10Z" fill="url(#paint0_linear)" stroke="url(#paint1_linear)" stroke-width="8"/>
<path d="M74.1484 40.4688C74.1484 39.0781 74.4141 37.7734 74.9453 36.5547C75.4766 35.3359 76.1953 34.2734 77.1016 33.3672C78.0234 32.4453 79.0938 31.7188 80.3125 31.1875C81.5312 30.6562 82.8359 30.3906 84.2266 30.3906H99.6484V37.1172H84.2266C83.7578 37.1172 83.3203 37.2031 82.9141 37.375C82.5078 37.5469 82.1484 37.7891 81.8359 38.1016C81.5391 38.3984 81.3047 38.75 81.1328 39.1562C80.9609 39.5625 80.875 40 80.875 40.4688C80.875 40.9375 80.9609 41.3828 81.1328 41.8047C81.3047 42.2109 81.5391 42.5703 81.8359 42.8828C82.1484 43.1797 82.5078 43.4141 82.9141 43.5859C83.3203 43.7578 83.7578 43.8438 84.2266 43.8438H90.9531C92.3438 43.8438 93.6484 44.1094 94.8672 44.6406C96.1016 45.1562 97.1719 45.875 98.0781 46.7969C99 47.7031 99.7188 48.7734 100.234 50.0078C100.766 51.2266 101.031 52.5312 101.031 53.9219C101.031 55.3125 100.766 56.6172 100.234 57.8359C99.7188 59.0547 99 60.125 98.0781 61.0469C97.1719 61.9531 96.1016 62.6719 94.8672 63.2031C93.6484 63.7344 92.3438 64 90.9531 64H76.0234V57.2734H90.9531C91.4219 57.2734 91.8594 57.1875 92.2656 57.0156C92.6719 56.8438 93.0234 56.6094 93.3203 56.3125C93.6328 56 93.875 55.6406 94.0469 55.2344C94.2188 54.8281 94.3047 54.3906 94.3047 53.9219C94.3047 53.4531 94.2188 53.0156 94.0469 52.6094C93.875 52.2031 93.6328 51.8516 93.3203 51.5547C93.0234 51.2422 92.6719 51 92.2656 50.8281C91.8594 50.6562 91.4219 50.5703 90.9531 50.5703H84.2266C82.8359 50.5703 81.5312 50.3047 80.3125 49.7734C79.0938 49.2422 78.0234 48.5234 77.1016 47.6172C76.1953 46.6953 75.4766 45.625 74.9453 44.4062C74.4141 43.1719 74.1484 41.8594 74.1484 40.4688ZM119.102 64H112.398V37.1172H102.297V30.3906H129.18V37.1172H119.102V64ZM151.492 50.5703V43.8438C151.492 42.9219 151.312 42.0547 150.953 41.2422C150.609 40.4141 150.133 39.6953 149.523 39.0859C148.914 38.4766 148.195 38 147.367 37.6562C146.555 37.2969 145.688 37.1172 144.766 37.1172C143.844 37.1172 142.969 37.2969 142.141 37.6562C141.328 38 140.617 38.4766 140.008 39.0859C139.398 39.6953 138.914 40.4141 138.555 41.2422C138.211 42.0547 138.039 42.9219 138.039 43.8438V50.5703H151.492ZM158.219 64H151.492V57.2734H138.039V64H131.336V43.8438C131.336 41.9844 131.688 40.2422 132.391 38.6172C133.094 36.9766 134.047 35.5469 135.25 34.3281C136.469 33.1094 137.891 32.1484 139.516 31.4453C141.156 30.7422 142.906 30.3906 144.766 30.3906C146.625 30.3906 148.367 30.7422 149.992 31.4453C151.633 32.1484 153.062 33.1094 154.281 34.3281C155.5 35.5469 156.461 36.9766 157.164 38.6172C157.867 40.2422 158.219 41.9844 158.219 43.8438V64ZM170.781 37.1172V50.5703H177.508C178.43 50.5703 179.297 50.3984 180.109 50.0547C180.922 49.6953 181.633 49.2109 182.242 48.6016C182.852 47.9922 183.328 47.2812 183.672 46.4688C184.031 45.6406 184.211 44.7656 184.211 43.8438C184.211 42.9219 184.031 42.0547 183.672 41.2422C183.328 40.4141 182.852 39.6953 182.242 39.0859C181.633 38.4766 180.922 38 180.109 37.6562C179.297 37.2969 178.43 37.1172 177.508 37.1172H170.781ZM170.781 64H164.055V30.3906H177.508C178.742 30.3906 179.93 30.5547 181.07 30.8828C182.211 31.1953 183.273 31.6484 184.258 32.2422C185.258 32.8203 186.164 33.5234 186.977 34.3516C187.805 35.1641 188.508 36.0703 189.086 37.0703C189.68 38.0703 190.133 39.1406 190.445 40.2812C190.773 41.4219 190.938 42.6094 190.938 43.8438C190.938 45 190.789 46.125 190.492 47.2188C190.211 48.3125 189.797 49.3516 189.25 50.3359C188.719 51.3203 188.062 52.2266 187.281 53.0547C186.5 53.8828 185.625 54.6016 184.656 55.2109L188.383 64H181.234L178.305 57.2266L170.781 57.2734V64ZM208.867 64H202.164V37.1172H192.062V30.3906H218.945V37.1172H208.867V64Z" fill="url(#paint2_linear)"/>
</g>
<defs>
<filter id="filter0_d" x="0" y="0" width="289" height="119" filterUnits="userSpaceOnUse" color-interpolation-filters="sRGB">
<feFlood flood-opacity="0" result="BackgroundImageFix"/>
<feColorMatrix in="SourceAlpha" type="matrix" values="0 0 0 0 0 0 0 0 0 0 0 0 0 0 0 0 0 0 127 0"/>
<feOffset dy="14"/>
<feGaussianBlur stdDeviation="10"/>
<feColorMatrix type="matrix" values="0 0 0 0 0 0 0 0 0 0 0 0 0 0 0 0 0 0 0.6 0"/>
<feBlend mode="normal" in2="BackgroundImageFix" result="effect1_dropShadow"/>
<feBlend mode="normal" in="SourceGraphic" in2="effect1_dropShadow" result="shape"/>
</filter>
<linearGradient id="paint0_linear" x1="144.5" y1="6" x2="144.5" y2="85" gradientUnits="userSpaceOnUse">
<stop offset="0.130208" stop-color="white"/>
<stop offset="1" stop-color="#FFC56D" stop-opacity="0.6"/>
</linearGradient>
<linearGradient id="paint1_linear" x1="144.5" y1="6" x2="144.5" y2="85" gradientUnits="userSpaceOnUse">
<stop stop-color="#6AE867"/>
<stop offset="1" stop-color="#075B00"/>
</linearGradient>
<linearGradient id="paint2_linear" x1="146.5" y1="17" x2="146.5" y2="77" gradientUnits="userSpaceOnUse">
<stop stop-color="#C3F5D1"/>
<stop offset="1" stop-color="#07510F"/>
</linearGradient>
</defs>
</svg>
