<svg width="185" height="74" viewBox="0 0 185 74" fill="none" xmlns="http://www.w3.org/2000/svg">
<g filter="url(#filter0_d)">
<path d="M20.1484 16.4688C20.1484 15.0781 20.4141 13.7734 20.9453 12.5547C21.4766 11.3359 22.1953 10.2734 23.1016 9.3672C24.0234 8.4453 25.0938 7.7188 26.3125 7.1875C27.5312 6.6562 28.8359 6.3906 30.2266 6.3906H45.6484V13.1172H30.2266C29.7578 13.1172 29.3203 13.2031 28.9141 13.375C28.5078 13.5469 28.1484 13.7891 27.8359 14.1016C27.5391 14.3984 27.3047 14.75 27.1328 15.1562C26.9609 15.5625 26.875 16 26.875 16.4688C26.875 16.9375 26.9609 17.3828 27.1328 17.8047C27.3047 18.2109 27.5391 18.5703 27.8359 18.8828C28.1484 19.1797 28.5078 19.4141 28.9141 19.5859C29.3203 19.7578 29.7578 19.8438 30.2266 19.8438H36.9531C38.3438 19.8438 39.6484 20.1094 40.8672 20.6406C42.1016 21.1562 43.1719 21.875 44.0781 22.7969C45 23.7031 45.7188 24.7734 46.234 26.0078C46.766 27.2266 47.031 28.5312 47.031 29.9219C47.031 31.3125 46.766 32.6172 46.234 33.8359C45.7188 35.0547 45 36.125 44.0781 37.0469C43.1719 37.9531 42.1016 38.6719 40.8672 39.2031C39.6484 39.7344 38.3438 40 36.9531 40H22.0234V33.2734H36.9531C37.4219 33.2734 37.8594 33.1875 38.2656 33.0156C38.6719 32.8438 39.0234 32.6094 39.3203 32.3125C39.6328 32 39.875 31.6406 40.0469 31.2344C40.2188 30.8281 40.3047 30.3906 40.3047 29.9219C40.3047 29.4531 40.2188 29.0156 40.0469 28.6094C39.875 28.2031 39.6328 27.8516 39.3203 27.5547C39.0234 27.2422 38.6719 27 38.2656 26.8281C37.8594 26.6562 37.4219 26.5703 36.9531 26.5703H30.2266C28.8359 26.5703 27.5312 26.3047 26.3125 25.7734C25.0938 25.2422 24.0234 24.5234 23.1016 23.6172C22.1953 22.6953 21.4766 21.625 20.9453 20.4062C20.4141 19.1719 20.1484 17.8594 20.1484 16.4688ZM65.102 40H58.398V13.1172H48.297V6.3906H75.18V13.1172H65.102V40ZM97.492 26.5703V19.8438C97.492 18.9219 97.312 18.0547 96.953 17.2422C96.609 16.4141 96.133 15.6953 95.523 15.0859C94.914 14.4766 94.195 14 93.367 13.6562C92.555 13.2969 91.688 13.1172 90.766 13.1172C89.844 13.1172 88.969 13.2969 88.141 13.6562C87.328 14 86.617 14.4766 86.008 15.0859C85.398 15.6953 84.914 16.4141 84.555 17.2422C84.211 18.0547 84.039 18.9219 84.039 19.8438V26.5703H97.492ZM104.219 40H97.492V33.2734H84.039V40H77.336V19.8438C77.336 17.9844 77.688 16.2422 78.391 14.6172C79.094 12.9766 80.047 11.5469 81.25 10.3281C82.469 9.1094 83.891 8.1484 85.516 7.4453C87.156 6.7422 88.906 6.3906 90.766 6.3906C92.625 6.3906 94.367 6.7422 95.992 7.4453C97.633 8.1484 99.062 9.1094 100.281 10.3281C101.5 11.5469 102.461 12.9766 103.164 14.6172C103.867 16.2422 104.219 17.9844 104.219 19.8438V40ZM116.781 13.1172V26.5703H123.508C124.43 26.5703 125.297 26.3984 126.109 26.0547C126.922 25.6953 127.633 25.2109 128.242 24.6016C128.852 23.9922 129.328 23.2812 129.672 22.4688C130.031 21.6406 130.211 20.7656 130.211 19.8438C130.211 18.9219 130.031 18.0547 129.672 17.2422C129.328 16.4141 128.852 15.6953 128.242 15.0859C127.633 14.4766 126.922 14 126.109 13.6562C125.297 13.2969 124.43 13.1172 123.508 13.1172H116.781ZM116.781 40H110.055V6.3906H123.508C124.742 6.3906 125.93 6.5547 127.07 6.8828C128.211 7.1953 129.273 7.6484 130.258 8.2422C131.258 8.8203 132.164 9.5234 132.977 10.3516C133.805 11.1641 134.508 12.0703 135.086 13.0703C135.68 14.0703 136.133 15.1406 136.445 16.2812C136.773 17.4219 136.938 18.6094 136.938 19.8438C136.938 21 136.789 22.125 136.492 23.2188C136.211 24.3125 135.797 25.3516 135.25 26.3359C134.719 27.3203 134.062 28.2266 133.281 29.0547C132.5 29.8828 131.625 30.6016 130.656 31.2109L134.383 40H127.234L124.305 33.2266L116.781 33.2734V40ZM154.867 40H148.164V13.1172H138.062V6.3906H164.945V13.1172H154.867V40Z" fill="url(#paint0_linear)"/>
</g>
<defs>
<filter id="filter0_d" x="0.148399" y="0.3906" width="184.797" height="73.6094" filterUnits="userSpaceOnUse" color-interpolation-filters="sRGB">
<feFlood flood-opacity="0" result="BackgroundImageFix"/>
<feColorMatrix in="SourceAlpha" type="matrix" values="0 0 0 0 0 0 0 0 0 0 0 0 0 0 0 0 0 0 127 0"/>
<feOffset dy="14"/>
<feGaussianBlur stdDeviation="10"/>
<feColorMatrix type="matrix" values="0 0 0 0 0 0 0 0 0 0 0 0 0 0 0 0 0 0 0.6 0"/>
<feBlend mode="normal" in2="BackgroundImageFix" result="effect1_dropShadow"/>
<feBlend mode="normal" in="SourceGraphic" in2="effect1_dropShadow" result="shape"/>
</filter>
<linearGradient id="paint0_linear" x1="92.5" y1="-7" x2="92.5" y2="53" gradientUnits="userSpaceOnUse">
<stop stop-color="#E2FFEA"/>
<stop offset="1" stop-color="#00C036"/>
</linearGradient>
</defs>
</svg>
