<svg width="455" height="283" viewBox="0 0 455 283" fill="none" xmlns="http://www.w3.org/2000/svg">
<g filter="url(#filter0_d)">
<path d="M212.349 22.0945C164.706 19.5977 60.0805 28.3861 22.7242 83.5139C-31.653 176.813 160.402 192.053 384.962 257.391C384.962 257.391 307.752 202.88 341.385 165.882C375.017 128.884 422.5 119.328 422.5 101C422.5 101 422 33.0812 212.349 22.0945Z" fill="#E9E9E9"/>
<path d="M212.349 22.0945C164.706 19.5977 60.0805 28.3861 22.7242 83.5139C-31.653 176.813 160.402 192.053 384.962 257.391C384.962 257.391 307.752 202.88 341.385 165.882C375.017 128.884 422.5 119.328 422.5 101C422.5 101 422 33.0812 212.349 22.0945Z" stroke="url(#paint0_radial)" stroke-width="5"/>
</g>
<ellipse cx="134.079" cy="94.4853" rx="92.318" ry="42.1939" transform="rotate(-12.0136 134.079 94.4853)" fill="url(#paint1_radial)"/>
<defs>
<filter id="filter0_d" x="0.279663" y="0.725616" width="454.599" height="281.482" filterUnits="userSpaceOnUse" color-interpolation-filters="sRGB">
<feFlood flood-opacity="0" result="BackgroundImageFix"/>
<feColorMatrix in="SourceAlpha" type="matrix" values="0 0 0 0 0 0 0 0 0 0 0 0 0 0 0 0 0 0 127 0"/>
<feOffset dx="21" dy="17"/>
<feGaussianBlur stdDeviation="1.5"/>
<feColorMatrix type="matrix" values="0 0 0 0 0 0 0 0 0 0 0 0 0 0 0 0 0 0 0.25 0"/>
<feBlend mode="normal" in2="BackgroundImageFix" result="effect1_dropShadow"/>
<feBlend mode="normal" in="SourceGraphic" in2="effect1_dropShadow" result="shape"/>
</filter>
<radialGradient id="paint0_radial" cx="0" cy="0" r="1" gradientUnits="userSpaceOnUse" gradientTransform="translate(229 153) rotate(45.1854) scale(218.497 405.815)">
<stop stop-opacity="0.37"/>
<stop offset="1" stop-opacity="0"/>
</radialGradient>
<radialGradient id="paint1_radial" cx="0" cy="0" r="1" gradientUnits="userSpaceOnUse" gradientTransform="translate(129.669 27.8113) rotate(60.1472) scale(78.5684 194.521)">
<stop stop-color="white"/>
<stop offset="1" stop-color="#E9E9E9" stop-opacity="0"/>
</radialGradient>
</defs>
</svg>
